<svg width="203" height="53" viewBox="0 0 203 53" fill="none" xmlns="http://www.w3.org/2000/svg">
<path d="M2.4603 9.00745C2.4603 4.58918 6.04202 1.00746 10.4603 1.00746H50.5042C54.9225 1.00746 58.5042 4.58918 58.5042 9.00746V40.5027C58.5042 44.9209 54.9225 48.5026 50.5042 48.5026H10.4603C6.04201 48.5026 2.4603 44.9209 2.4603 40.5026V9.00745Z" fill="#3B82F6"/>
<g filter="url(#filter0_d_6_21)">
<path d="M8.98438 37.791V9.35347H15.4688V20.5253L24.375 9.35347H31.1914L15.4688 28.2988V37.791H8.98438ZM24.8047 37.791L15.9375 24.08L19.9414 19.2949L32.3438 37.791H24.8047ZM31.9336 28.8652V27.9472H37.9492V29.3144C37.9492 30.8509 38.2227 31.9576 38.7695 32.6347C39.3164 33.2988 40.1562 33.6308 41.2891 33.6308C42.3698 33.6308 43.1966 33.2793 43.7695 32.5761C44.3424 31.86 44.6289 30.636 44.6289 28.9043V9.35347H51.1133V28.2011C51.1133 31.4173 50.293 33.8977 48.6523 35.6425C47.0117 37.3873 44.6354 38.2597 41.5234 38.2597C38.4766 38.2597 36.1133 37.498 34.4336 35.9746C32.7669 34.4381 31.9336 32.0683 31.9336 28.8652Z" fill="white"/>
</g>
<path d="M91.7346 15.5101L85.3506 22.2541L92.5266 32.6941H86.9586L82.3266 25.4941L80.4786 27.3901V32.6941H75.9906V15.5101H80.4786V19.8061V21.0781V22.2541C81.1026 21.3901 81.6306 20.7101 82.0626 20.2141L86.1906 15.5101H91.7346ZM103.959 20.1661L103.935 23.5261C103.343 23.3501 102.783 23.2621 102.255 23.2621C100.175 23.2621 99.1345 24.5981 99.1345 27.2701V32.6941H95.0545V20.2381H98.9905V22.3741C99.4705 20.7261 100.807 19.9021 102.999 19.9021C103.255 19.9021 103.575 19.9901 103.959 20.1661ZM111.241 20.2381V32.6941H107.161V20.2381H111.241ZM109.201 15.0541C109.713 15.0541 110.153 15.2381 110.521 15.6061C110.889 15.9581 111.073 16.3981 111.073 16.9261C111.073 17.4381 110.889 17.8781 110.521 18.2461C110.153 18.6141 109.713 18.7981 109.201 18.7981C108.673 18.7981 108.225 18.6141 107.857 18.2461C107.505 17.8781 107.329 17.4381 107.329 16.9261C107.329 16.3981 107.505 15.9581 107.857 15.6061C108.225 15.2381 108.673 15.0541 109.201 15.0541ZM126.292 23.7421H122.524C122.46 23.2621 122.268 22.9261 121.948 22.7341C121.644 22.5261 121.14 22.4221 120.436 22.4221C119.348 22.4221 118.804 22.7581 118.804 23.4301C118.804 23.7821 118.972 24.0381 119.308 24.1981C119.66 24.3581 120.46 24.5581 121.708 24.7981C123.516 25.1501 124.78 25.6221 125.5 26.2141C126.236 26.7901 126.604 27.6301 126.604 28.7341C126.604 30.1741 126.004 31.2781 124.804 32.0461C123.748 32.7021 122.348 33.0301 120.604 33.0301C118.396 33.0301 116.764 32.5101 115.708 31.4701C115.196 30.9581 114.86 30.5581 114.7 30.2701C114.556 29.9661 114.46 29.4781 114.412 28.8061H118.42C118.484 29.3821 118.676 29.7901 118.996 30.0301C119.332 30.2541 119.884 30.3661 120.652 30.3661C121.932 30.3661 122.572 29.9421 122.572 29.0941C122.572 28.7261 122.42 28.4621 122.116 28.3021C121.812 28.1261 121.092 27.9101 119.956 27.6541C118.18 27.2701 116.972 26.9021 116.332 26.5501C115.308 25.9741 114.796 25.0461 114.796 23.7661C114.796 22.5181 115.292 21.5661 116.284 20.9101C117.276 20.2381 118.684 19.9021 120.508 19.9021C122.764 19.9021 124.372 20.4381 125.332 21.5101C125.908 22.1341 126.228 22.8781 126.292 23.7421ZM134.33 15.5101V21.8701C135.306 20.5581 136.618 19.9021 138.266 19.9021C139.946 19.9021 141.178 20.4621 141.962 21.5821C142.458 22.3181 142.706 23.4061 142.706 24.8461V32.6941H138.626V25.5901C138.626 24.7741 138.498 24.2061 138.242 23.8861C137.89 23.4541 137.362 23.2381 136.658 23.2381C135.746 23.2381 135.082 23.6061 134.666 24.3421C134.442 24.7261 134.33 25.4301 134.33 26.4541V32.6941H130.25V15.5101H134.33ZM157.726 15.5101V27.0061C157.726 28.8621 157.318 30.2781 156.502 31.2541C155.43 32.5021 153.846 33.1261 151.75 33.1261C149.238 33.1261 147.486 32.2781 146.494 30.5821C145.966 29.6701 145.702 28.3501 145.702 26.6221C145.702 26.4141 145.702 26.1661 145.702 25.8781H149.806V26.3341C149.806 27.5341 149.902 28.3101 150.094 28.6621C150.366 29.1741 150.87 29.4301 151.606 29.4301C152.198 29.4301 152.614 29.2621 152.854 28.9261C153.11 28.5901 153.238 28.0141 153.238 27.1981V15.5101H157.726ZM167.891 33.0301C165.795 33.0301 164.131 32.3421 162.899 30.9661C161.827 29.7661 161.291 28.2621 161.291 26.4541C161.291 24.3741 161.979 22.7181 163.355 21.4861C164.555 20.4301 166.059 19.9021 167.867 19.9021C169.979 19.9021 171.651 20.5821 172.883 21.9421C173.939 23.1101 174.467 24.6061 174.467 26.4301C174.467 28.5261 173.779 30.1901 172.403 31.4221C171.203 32.4941 169.699 33.0301 167.891 33.0301ZM167.843 22.8781C167.075 22.8781 166.483 23.1901 166.067 23.8141C165.651 24.4381 165.443 25.3181 165.443 26.4541C165.443 28.8541 166.259 30.0541 167.891 30.0541C169.523 30.0541 170.339 28.8461 170.339 26.4301C170.339 24.0621 169.507 22.8781 167.843 22.8781ZM182.229 15.5101V21.6781C183.205 20.4621 184.421 19.8541 185.877 19.8541C187.589 19.8541 188.933 20.5261 189.909 21.8701C190.757 23.0221 191.181 24.5021 191.181 26.3101C191.181 28.4861 190.605 30.1901 189.453 31.4221C188.445 32.4941 187.157 33.0301 185.589 33.0301C184.149 33.0301 182.981 32.4301 182.085 31.2301V32.6941H178.149V15.5101H182.229ZM184.581 23.0701C183.829 23.0701 183.229 23.3661 182.781 23.9581C182.333 24.5501 182.109 25.3421 182.109 26.3341C182.109 27.3741 182.325 28.1981 182.757 28.8061C183.205 29.3981 183.821 29.6941 184.605 29.6941C185.357 29.6941 185.949 29.3981 186.381 28.8061C186.829 28.1981 187.053 27.3741 187.053 26.3341C187.053 25.3421 186.829 24.5501 186.381 23.9581C185.933 23.3661 185.333 23.0701 184.581 23.0701Z" fill="#3B82F6"/>
<defs>
<filter id="filter0_d_6_21" x="4.98438" y="9.35347" width="50.1289" height="36.9062" filterUnits="userSpaceOnUse" color-interpolation-filters="sRGB">
<feFlood flood-opacity="0" result="BackgroundImageFix"/>
<feColorMatrix in="SourceAlpha" type="matrix" values="0 0 0 0 0 0 0 0 0 0 0 0 0 0 0 0 0 0 127 0" result="hardAlpha"/>
<feOffset dy="4"/>
<feGaussianBlur stdDeviation="2"/>
<feComposite in2="hardAlpha" operator="out"/>
<feColorMatrix type="matrix" values="0 0 0 0 0 0 0 0 0 0 0 0 0 0 0 0 0 0 0.25 0"/>
<feBlend mode="normal" in2="BackgroundImageFix" result="effect1_dropShadow_6_21"/>
<feBlend mode="normal" in="SourceGraphic" in2="effect1_dropShadow_6_21" result="shape"/>
</filter>
</defs>
</svg>
